<svg xmlns="http://www.w3.org/2000/svg" data-name="Layer 1" viewBox="0 0 1202.12 1502.65" x="0px" y="0px">
  <title>y2k element</title>
  <path fill="#101010" d="M688,514.13C614.51,440.67,609.47,303.42,605.06,0h-8c-4.41,303.42-9.46,440.67-82.92,514.13S303.42,592.65,0,597.06v8c303.42,4.41,440.67,9.46,514.13,82.92s78.51,210.71,82.92,514.13h8C609.47,898.69,614.51,761.45,688,688s210.71-78.51,514.13-82.92v-8C898.69,592.65,761.45,587.6,688,514.13Zm173.8,98.11c-87.17,11.53-142.51,33.14-179.45,70.08s-58.56,92.29-70.08,179.45c-5.7,43.09-9,93.39-11.18,154.1-2.18-60.71-5.48-111-11.18-154.1-11.53-87.17-33.14-142.51-70.08-179.45s-92.29-58.56-179.45-70.08c-43.09-5.7-93.39-9-154.1-11.18,60.71-2.18,111-5.48,154.1-11.18,87.17-11.53,142.51-33.14,179.45-70.08s58.56-92.29,70.08-179.45c5.7-43.09,9-93.39,11.18-154.1,2.18,60.71,5.48,111,11.18,154.1,11.53,87.17,33.14,142.51,70.08,179.45s92.29,58.56,179.45,70.08c43.09,5.7,93.39,9,154.1,11.18C955.17,603.24,904.87,606.54,861.78,612.24Z"/>
  <path fill="#101010" d="M913.9,530.55h8c1.57-107.73,3.33-156.43,28.89-182s74.25-27.32,182-28.89v-8c-107.73-1.57-156.43-3.33-182-28.89s-27.32-74.26-28.89-182h-8c-1.56,107.73-3.33,156.43-28.89,182s-74.25,27.32-182,28.89v8c107.73,1.57,156.43,3.33,182,28.89S912.34,422.82,913.9,530.55Zm-23.23-242.1c16.24-16.24,23.62-41.1,27.23-77.89,3.61,36.79,11,61.66,27.23,77.89s41.11,23.62,77.89,27.23c-36.79,3.61-61.66,11-77.89,27.23S921.52,384,917.9,420.8c-3.61-36.79-11-61.65-27.23-77.89s-41.1-23.62-77.89-27.23C849.57,312.07,874.44,304.69,890.67,288.45Z"/>
  <path fill="#101010" d="M270.9,702.81h-8c-1.56,107.73-3.33,156.43-28.89,182s-74.25,27.32-182,28.89v8c107.73,1.56,156.43,3.33,182,28.89s27.32,74.25,28.89,182h8c1.57-107.73,3.33-156.43,28.89-182s74.26-27.32,182-28.89v-8c-107.73-1.57-156.43-3.33-182-28.89S272.47,810.54,270.9,702.81Zm23.23,242.1C277.9,961.15,270.52,986,266.9,1022.8c-3.61-36.79-11-61.65-27.23-77.89s-41.11-23.62-77.89-27.23c36.79-3.61,61.66-11,77.89-27.23s23.62-41.11,27.23-77.89c3.61,36.79,11,61.66,27.23,77.89s41.11,23.62,77.89,27.23C335.24,921.3,310.37,928.68,294.13,944.91Z"/>
</svg>
